#N canvas 818 117 602 607 10;
#X declare -path ./include;
#X obj 35 32 dumpOSC 9999;
#X obj 35 61 OSCroute /osc;
#X floatatom 35 122 5 0 0 0 - - -;
#X floatatom 50 142 5 0 0 0 - - -;
#X floatatom 66 162 5 0 0 0 - - -;
#X floatatom 82 182 5 0 0 0 - - -;
#X floatatom 98 122 5 0 0 0 - - -;
#X floatatom 114 142 5 0 0 0 - - -;
#X floatatom 130 162 5 0 0 0 - - -;
#X obj 37 454 output~;
#X obj 188 29 declare -path ./include;
#X obj 35 244 ga 100 400;
#X obj 35 93 route 0 1 2 3 4 5 6 7 8 9 10;
#X floatatom 148 185 5 0 0 0 - - -;
#X floatatom 163 123 5 0 0 0 - - -;
#X floatatom 183 144 5 0 0 0 - - -;
#X floatatom 197 170 5 0 0 0 - - -;
#X obj 319 172 s gain;
#X obj 368 174 s geta;
#X floatatom 314 133 5 0 0 0 - - -;
#X floatatom 369 140 5 0 0 0 - - -;
#X obj 50 268 ga 100 400;
#X obj 66 295 ga 100 400;
#X obj 82 319 ga 100 400;
#X obj 122 243 ga 100 400;
#X obj 137 267 ga 100 400;
#X obj 153 294 ga 100 400;
#X obj 169 318 ga 100 400;
#X obj 208 241 ga 100 400;
#X obj 224 265 ga 100 400;
#X obj 248 296 ga 100 400;
#X obj 418 174 s amp;
#X floatatom 419 133 5 0 0 0 - - -;
#X connect 0 0 1 0;
#X connect 1 0 12 0;
#X connect 2 0 11 0;
#X connect 3 0 21 0;
#X connect 4 0 22 0;
#X connect 5 0 23 0;
#X connect 6 0 24 0;
#X connect 7 0 25 0;
#X connect 8 0 26 0;
#X connect 11 0 9 0;
#X connect 12 0 2 0;
#X connect 12 1 3 0;
#X connect 12 2 4 0;
#X connect 12 3 5 0;
#X connect 12 4 6 0;
#X connect 12 5 7 0;
#X connect 12 6 8 0;
#X connect 12 7 13 0;
#X connect 12 8 14 0;
#X connect 12 9 15 0;
#X connect 12 10 16 0;
#X connect 13 0 27 0;
#X connect 14 0 28 0;
#X connect 15 0 29 0;
#X connect 16 0 30 0;
#X connect 19 0 17 0;
#X connect 20 0 18 0;
#X connect 21 0 9 0;
#X connect 22 0 9 0;
#X connect 23 0 9 0;
#X connect 24 0 9 1;
#X connect 25 0 9 1;
#X connect 26 0 9 1;
#X connect 27 0 9 1;
#X connect 28 0 9 0;
#X connect 29 0 9 1;
#X connect 30 0 9 0;
#X connect 32 0 31 0;
